<?xml version="1.0" encoding="iso-8859-1"?>
<!-- Uploaded to: SVG Repo, www.svgrepo.com, Generator: SVG Repo Mixer Tools -->
<svg fill="#000000" height="800px" width="800px" version="1.1" id="Layer_1" xmlns="http://www.w3.org/2000/svg" xmlns:xlink="http://www.w3.org/1999/xlink" 
	 viewBox="0 0 511.998 511.998" xml:space="preserve">
<g>
	<g>
		<path d="M486.274,152.691L352.664,19.081c-25.445-25.442-66.842-25.442-92.286,0L126.768,152.691
			c-12.325,12.326-19.113,28.712-19.113,46.143c0,17.997,7.174,34.762,20.2,47.206c25.42,24.284,66.681,23.456,91.981-1.844
			l14.887-14.887c-25.973,78.049-92.825,137.768-175.292,153.311C28.826,388.388,6.612,415.338,6.612,446.7
			c0,19.481,8.6,37.789,23.593,50.227c11.855,9.835,26.576,15.071,41.693,15.071c4.043,0,8.116-0.375,12.166-1.133
			c71.008-13.345,135.806-47.661,187.384-99.241c52.449-52.449,86.645-117.627,99.646-189.54l22.083,22.084
			c12.161,12.16,28.317,19.127,45.489,19.616c17.356,0.498,33.832-5.732,46.298-17.532c12.922-12.233,20.174-28.752,20.418-46.516
			C505.625,181.965,498.839,165.257,486.274,152.691z M470.941,231.435c-17.461,16.529-45.874,15.77-63.337-1.694l-36.346-36.346
			c-2.757-2.755-6.843-3.703-10.529-2.433c-3.686,1.267-6.328,4.525-6.806,8.394c-9.313,75.35-42.82,143.761-96.899,197.84
			c-48.661,48.663-109.772,81.035-176.726,93.616c-13.217,2.486-26.73-1.01-37.07-9.586c-10.306-8.551-16.217-21.134-16.217-34.527
			c0-21.562,15.224-40.081,36.2-44.034c102.72-19.362,183.188-101.655,200.236-204.78c0.723-4.372-1.461-8.711-5.402-10.735
			c-1.477-0.759-3.073-1.127-4.658-1.127c-2.645,0-5.257,1.028-7.215,2.988l-40.758,40.759
			c-17.528,17.525-45.997,18.206-63.464,1.519c-8.958-8.558-13.891-20.084-13.891-32.455c0-11.981,4.665-23.246,13.139-31.718
			L274.806,33.505c17.489-17.489,45.946-17.489,63.435,0l133.61,133.609c8.637,8.637,13.302,20.122,13.134,32.339
			C484.817,211.664,479.829,223.022,470.941,231.435z"/>
	</g>
</g>
<g>
	<g>
		<path d="M302.691,39.799c-3.985-3.982-10.442-3.982-14.426,0l-74.153,74.154c-3.983,3.984-3.983,10.443,0,14.426
			c1.992,1.991,4.601,2.988,7.212,2.988c2.61,0,5.22-0.997,7.213-2.988l74.153-74.154C306.674,50.24,306.674,43.782,302.691,39.799z
			"/>
	</g>
</g>
<g>
	<g>
		<path d="M203.599,139.068c-3.985-3.982-10.442-3.982-14.426,0l-5.665,5.665c-3.983,3.984-3.983,10.443,0,14.426
			c1.992,1.991,4.601,2.988,7.212,2.988s5.22-0.996,7.213-2.988l5.665-5.665C207.582,149.509,207.582,143.051,203.599,139.068z"/>
	</g>
</g>
</svg>