<?xml version="1.0" encoding="iso-8859-1"?>
<!-- Uploaded to: SVG Repo, www.svgrepo.com, Generator: SVG Repo Mixer Tools -->
<!DOCTYPE svg PUBLIC "-//W3C//DTD SVG 1.1//EN" "http://www.w3.org/Graphics/SVG/1.1/DTD/svg11.dtd">
<svg fill="#000000" version="1.1" id="Capa_1" xmlns="http://www.w3.org/2000/svg" xmlns:xlink="http://www.w3.org/1999/xlink" 
	 width="800px" height="800px" viewBox="0 0 31.332 31.332"
	 xml:space="preserve">
<g>
	<path d="M23.045,13.236c0.781,0.781,0.781,2.047,0,2.829c-0.779,0.781-2.047,0.781-2.828,0l-2.551-2.55v9.132c0,1.104-0.896,2-2,2
		c-1.104,0-2-0.896-2-2v-9.132l-2.554,2.552c-0.391,0.391-0.901,0.586-1.414,0.586c-0.512,0-1.022-0.195-1.413-0.586
		c-0.781-0.781-0.781-2.047,0-2.828l7.381-7.381L23.045,13.236z M31.332,15.666c0,8.639-7.027,15.666-15.666,15.666
		C7.026,31.332,0,24.305,0,15.666C0,7.028,7.026,0,15.666,0C24.305,0,31.332,7.028,31.332,15.666z M27.332,15.666
		C27.332,9.233,22.1,4,15.666,4C9.233,4,4,9.233,4,15.666C4,22.1,9.233,27.332,15.666,27.332C22.1,27.332,27.332,22.1,27.332,15.666
		z"/>
</g>
</svg>