<?xml version="1.0" encoding="iso-8859-1"?>
<!-- Uploaded to: SVG Repo, www.svgrepo.com, Generator: SVG Repo Mixer Tools -->
<svg height="800px" width="800px" version="1.1" id="Layer_1" xmlns="http://www.w3.org/2000/svg" xmlns:xlink="http://www.w3.org/1999/xlink" 
	 viewBox="0 0 512 512" xml:space="preserve">
<path style="fill:#8AD5DD;" d="M256,0C114.608,0,0,114.608,0,256c0,141.376,114.608,256,256,256s256-114.624,256-256
	C512,114.608,397.392,0,256,0z"/>
<g style="opacity:0.2;">
	<polygon points="167.536,322.384 238.784,249.36 238.784,425.6 305.232,425.6 305.232,249.36 376.464,322.384 423.888,275.872 
		272,120.16 120.112,275.872 	"/>
</g>
<polygon style="fill:#FFFFFF;" points="151.536,306.384 222.784,233.36 222.784,409.6 289.232,409.6 289.232,233.36 
	360.464,306.384 407.888,259.872 256,104.16 104.112,259.872 "/>
</svg>